<svg width="12" height="16" viewBox="0 0 12 16" fill="none" xmlns="http://www.w3.org/2000/svg">
<path d="M5.86035 0.509766L5.86328 0.510742C7.98292 1.38845 9.14063 3.86372 8.83398 6.25V6.25098C8.67106 7.5208 8.22273 8.37675 7.61621 8.99805L7.61133 9.00293L7.60645 9.00879C7.52781 9.09422 7.4665 9.195 7.42871 9.30566L7.39941 9.41895C7.37184 9.56458 7.38475 9.71409 7.43457 9.85254V9.85352C7.43554 9.8564 7.4365 9.85944 7.4375 9.8623C7.43977 9.86838 7.44192 9.87483 7.44434 9.88086L7.44531 9.87988C7.4986 10.0195 7.59272 10.1363 7.71289 10.2158L7.72266 10.2227L7.7334 10.2285C7.87934 10.3153 8.04665 10.3348 8.21289 10.2969L8.21875 10.2959C9.61925 9.95918 10.3387 9.19868 11.0869 8.37402C11.4346 9.16909 11.5665 10.034 11.4678 10.8906C11.3541 11.8769 10.9404 12.8145 10.2715 13.5889C9.6022 14.3636 8.70583 14.9418 7.68945 15.25C6.67288 15.5582 5.58252 15.5817 4.55176 15.3174C3.52114 15.0531 2.59716 14.5133 1.89062 13.7676C1.18456 13.0222 0.725566 12.1027 0.564453 11.1221C0.403422 10.1416 0.545947 9.13718 0.977539 8.22949C1.40936 7.32135 2.11362 6.54663 3.00781 6.00195L3.05371 5.97363L3.0918 5.93652L3.16406 5.86621C3.92528 5.38207 4.59289 4.91353 5.06738 4.31348L5.06836 4.31445C5.55906 3.6944 5.83203 2.94948 5.83203 1.94336C5.83203 1.50993 5.78161 1.08495 5.68457 0.677734L5.68359 0.673828L5.67969 0.638672C5.67996 0.626861 5.68213 0.615188 5.68555 0.603516C5.69251 0.579855 5.70571 0.554436 5.72852 0.532227L5.73242 0.529297C5.74403 0.517953 5.76245 0.506603 5.78711 0.501953C5.81233 0.497279 5.83892 0.500692 5.86035 0.509766Z" stroke="white"/>
</svg>
