<svg width="18" height="20" viewBox="0 0 18 20" fill="none" xmlns="http://www.w3.org/2000/svg">
<path d="M4.57867 4.61774C4.66476 4.58207 4.76106 4.57113 4.85432 4.58644C4.94757 4.60174 5.03319 4.64252 5.09939 4.70318C5.16389 4.76129 5.21106 4.83297 5.23656 4.91165C5.26206 4.99033 5.26508 5.0735 5.24534 5.15355C5.18092 5.42376 5.14883 5.70585 5.15241 5.99367C5.16061 6.65259 5.35187 7.11225 5.67632 7.49142C6.00564 7.87666 6.47919 8.18801 7.07714 8.5384C7.08645 8.54398 7.09523 8.55023 7.10339 8.55709L7.17608 8.6212C7.93199 9.04597 8.53379 9.65779 8.90866 10.3826C9.28353 11.1074 9.41539 11.9142 9.2883 12.7053C9.1612 13.4963 8.7806 14.2378 8.19254 14.84C7.60448 15.4421 6.83417 15.8792 5.97482 16.0982C5.11548 16.3172 4.20394 16.3088 3.3505 16.074C2.49707 15.8392 1.73832 15.3881 1.16607 14.7753C0.593831 14.1625 0.232619 13.4141 0.126149 12.6209C0.0196789 11.8277 0.172515 11.0236 0.566163 10.3058C0.57858 10.2832 0.59705 10.2636 0.619932 10.2489C0.642814 10.2341 0.669401 10.2247 0.697333 10.2213C0.725264 10.218 0.753676 10.2209 0.780048 10.2297C0.806419 10.2386 0.829933 10.2531 0.848505 10.272L0.992729 10.418C1.60159 11.0396 2.09326 11.5419 3.09074 11.7573C3.1333 11.766 3.15922 11.759 3.17758 11.7484C3.20686 11.7296 3.22842 11.7026 3.23893 11.6718C3.25634 11.6292 3.26053 11.5831 3.25105 11.5386C3.24158 11.4941 3.21879 11.4527 3.18512 11.4188C2.64679 10.9085 2.2602 10.2122 2.11295 9.21733C1.83644 7.35363 2.75982 5.35525 4.57867 4.61774Z" fill="#9AC500"/>
<path d="M7.24074 0.0251198C7.26403 0.0149362 7.29008 0.0118137 7.3153 0.0161821C7.34053 0.0205505 7.36369 0.032195 7.3816 0.0495129C7.39904 0.0661027 7.4118 0.0865656 7.4187 0.109029C7.4256 0.131492 7.42641 0.155237 7.42108 0.178091C7.40365 0.255233 7.39497 0.335769 7.39594 0.41794C7.39816 0.606059 7.44989 0.73729 7.53765 0.84554C7.62674 0.955524 7.75483 1.04441 7.91657 1.14445C7.91909 1.14604 7.92147 1.14783 7.92368 1.14979L7.94334 1.16809C8.14781 1.28936 8.3106 1.46403 8.412 1.67096C8.5134 1.87789 8.54907 2.10822 8.51469 2.33407C8.48031 2.55992 8.37736 2.77161 8.21829 2.94352C8.05922 3.11543 7.85085 3.2402 7.6184 3.30273C7.38595 3.36526 7.13938 3.36286 6.90852 3.29583C6.67767 3.2288 6.47243 3.10002 6.31764 2.92505C6.16285 2.75009 6.06514 2.53645 6.03634 2.30999C6.00754 2.08353 6.04888 1.85395 6.15536 1.64904C6.15872 1.64257 6.16372 1.63699 6.16991 1.63278C6.1761 1.62858 6.18329 1.62588 6.19085 1.62492C6.1984 1.62397 6.20609 1.62479 6.21322 1.62731C6.22035 1.62984 6.22671 1.63399 6.23174 1.63939L6.27075 1.68107C6.43545 1.85853 6.56844 2.00192 6.83826 2.06344C6.84977 2.06592 6.85678 2.06392 6.86175 2.06089C6.86967 2.05551 6.8755 2.04782 6.87834 2.03901C6.88305 2.02684 6.88419 2.01371 6.88162 2.00099C6.87906 1.98827 6.8729 1.97646 6.86379 1.96679C6.71817 1.8211 6.6136 1.6223 6.57377 1.33828C6.49897 0.806201 6.74875 0.235675 7.24074 0.0251198Z" fill="#9AC500"/>
<path d="M11.4095 1.1859C11.3082 1.12141 11.1879 1.08627 11.065 1.08532C10.9421 1.08437 10.8228 1.11766 10.7233 1.1806C10.6267 1.24066 10.5489 1.32186 10.4971 1.41677C10.4452 1.51168 10.421 1.61727 10.4266 1.72387C10.4427 2.08322 10.4147 2.45064 10.3396 2.81755C10.1678 3.65752 9.81094 4.2027 9.30362 4.61577C8.78859 5.03553 8.1074 5.3292 7.25773 5.6454C7.24447 5.65048 7.23173 5.65654 7.21962 5.66351L7.11106 5.72943C6.04138 6.10593 5.12278 6.75525 4.46642 7.59882C3.81006 8.44238 3.44407 9.44404 3.41274 10.4826C3.38142 11.5211 3.68609 12.552 4.28991 13.4505C4.89372 14.349 5.77079 15.0767 6.81498 15.5453C7.85917 16.014 9.02572 16.2036 10.1735 16.0913C11.3212 15.9789 12.401 15.5694 13.2821 14.9123C14.1632 14.2552 14.8078 13.3786 15.1381 12.3886C15.4683 11.3987 15.4699 10.3378 15.1428 9.33436C15.1325 9.3027 15.1136 9.27366 15.088 9.24981C15.0624 9.22596 15.0307 9.20803 14.9959 9.19763C14.961 9.18722 14.924 9.18465 14.8882 9.19015C14.8523 9.19565 14.8187 9.20904 14.7904 9.22915L14.5704 9.38396C13.6404 10.0442 12.8893 10.5778 11.5622 10.6338C11.5057 10.6356 11.4743 10.6209 11.4535 10.6033C11.4207 10.5728 11.3997 10.5336 11.3939 10.4919C11.3821 10.4336 11.388 10.3739 11.411 10.3191C11.434 10.2643 11.4732 10.2164 11.5245 10.1806C12.3372 9.64699 13.0016 8.84239 13.4333 7.60385C14.2428 5.28373 13.5525 2.52785 11.4095 1.1859Z" fill="#9AC500"/>
<path d="M9.16825 7.64368L9.16611 7.64423C7.35088 7.94731 6.04235 9.58373 5.8722 11.3637C5.79252 12.1949 5.93459 12.8387 6.21832 13.3638L6.34784 13.5816L6.35151 13.5873C6.38773 13.6465 6.41178 13.7134 6.41996 13.7833L6.42254 13.8537C6.41957 13.9442 6.39011 14.0313 6.3393 14.1065L6.34004 14.1077C6.3383 14.1104 6.336 14.1128 6.33421 14.1154C6.33322 14.1169 6.33219 14.1184 6.33119 14.1198L6.33141 14.1188C6.29466 14.1724 6.24683 14.2152 6.19252 14.2453L6.13201 14.2725L6.12112 14.2762C6.03462 14.3032 5.94341 14.2959 5.85507 14.2562L5.85243 14.2547C4.85995 13.7955 4.46991 13.1405 4.02583 12.4024L4.02701 12.4017L3.9732 12.3146C3.49299 12.8744 3.19636 13.5438 3.11873 14.252C3.03754 14.9935 3.19692 15.7487 3.58247 16.4265C3.9683 17.1047 4.56361 17.6767 5.29968 18.0692C6.0358 18.4616 6.87851 18.6567 7.72419 18.6304C8.56959 18.6041 9.37898 18.3576 10.0551 17.9249C10.731 17.4922 11.2451 16.8912 11.538 16.1983C11.8307 15.5058 11.8927 14.7458 11.7143 14.0096C11.5358 13.273 11.1234 12.5888 10.5232 12.0425L10.5041 12.0255L10.4883 12.0033L10.4386 11.9329C10.0055 11.5237 9.63535 11.1441 9.38336 10.7306L9.2823 10.5498C9.02983 10.056 8.94963 9.50763 9.11261 8.81118C9.18305 8.51021 9.28913 8.22268 9.42622 7.95526L9.4274 7.95451L9.44537 7.90342C9.44898 7.88611 9.45005 7.86828 9.44878 7.85026C9.44747 7.83194 9.44368 7.81275 9.43691 7.7939L9.40789 7.73792L9.4062 7.73657C9.3849 7.70529 9.3513 7.67673 9.30707 7.65888C9.26267 7.64102 9.21352 7.63581 9.16825 7.64368Z" fill="#ECFFAA" stroke="white" stroke-width="0.5"/>
</svg>
