<svg width="40" height="47" viewBox="0 0 40 47" fill="none" xmlns="http://www.w3.org/2000/svg">
<path d="M0 12.727C0 12.0132 0.380445 11.3534 0.998274 10.9959L19.0027 0.577134C19.62 0.219902 20.3808 0.218452 20.9995 0.573329L38.9951 10.8957C39.6167 11.2522 40 11.914 40 12.6305V33.4659C40 34.1797 39.6196 34.8394 39.0017 35.197L21.0017 45.6132C20.382 45.9718 19.618 45.9718 18.9983 45.6132L0.998275 35.197C0.380446 34.8394 0 34.1797 0 33.4659V12.727Z" fill="url(#paint0_linear_1044_86)"/>
<path d="M3.24805 14.5235C3.24805 13.8104 3.62771 13.1513 4.24453 12.7935L19.0002 4.23433C19.6184 3.87572 20.381 3.87426 21.0006 4.23051L35.7475 12.7095C36.368 13.0663 36.7506 13.7276 36.7506 14.4434V31.5678C36.7506 32.2809 36.3709 32.94 35.7541 33.2978L21.0028 41.8544C20.3822 42.2144 19.6164 42.2144 18.9958 41.8544L4.24453 33.2978C3.62771 32.94 3.24805 32.2809 3.24805 31.5678V14.5235Z" fill="#667E10"/>
<path d="M5 14.9551C5 14.2409 5.38087 13.5809 5.99924 13.2235L19.2321 5.57583C19.8489 5.21934 20.6088 5.2179 21.227 5.57203L34.451 13.1476C35.0731 13.504 35.4569 14.1661 35.4569 14.883V30.1718C35.4569 30.886 35.076 31.546 34.4576 31.9034L21.2292 39.5485C20.61 39.9064 19.8469 39.9064 19.2277 39.5485L5.99924 31.9034C5.38087 31.546 5 30.886 5 30.1718V14.9551Z" fill="url(#paint1_linear_1044_86)"/>
<defs>
<linearGradient id="paint0_linear_1044_86" x1="20" y1="0" x2="20" y2="46.1929" gradientUnits="userSpaceOnUse">
<stop stop-color="#D6FF45"/>
<stop offset="1" stop-color="#384800"/>
</linearGradient>
<linearGradient id="paint1_linear_1044_86" x1="20.2284" y1="5" x2="20.2284" y2="40.1269" gradientUnits="userSpaceOnUse">
<stop stop-color="#ECFFAA"/>
<stop offset="1" stop-color="#97A611"/>
</linearGradient>
</defs>
</svg>
