<svg width="12" height="16" viewBox="0 0 12 16" fill="none" xmlns="http://www.w3.org/2000/svg">
<path d="M6.05481 0.0492114C5.94246 0.00165099 5.81726 -0.0118622 5.69644 0.0105318C5.57562 0.0329258 5.46512 0.090126 5.38015 0.174259C5.29733 0.254872 5.23726 0.353809 5.20543 0.462014C5.17359 0.57022 5.17101 0.684236 5.19792 0.793625C5.28592 1.1629 5.33215 1.54895 5.33215 1.9434C5.33215 2.84643 5.09126 3.47922 4.67615 4.00375C4.25481 4.53668 3.64504 4.97057 2.87437 5.45985C2.86238 5.46764 2.85108 5.47634 2.84059 5.48587L2.74726 5.57483C1.77272 6.16845 1.00128 7.01602 0.526291 8.01496C0.0513061 9.01391 -0.106864 10.1214 0.0709202 11.2035C0.248705 12.2855 0.754824 13.2957 1.52803 14.1119C2.30124 14.928 3.3084 15.5151 4.42762 15.802C5.54685 16.089 6.73017 16.0635 7.8344 15.7287C8.93862 15.394 9.91642 14.7642 10.6495 13.9157C11.3825 13.0672 11.8394 12.0362 11.9648 10.9477C12.0902 9.85911 11.8788 8.75955 11.3561 7.78206C11.3397 7.75122 11.3154 7.72471 11.2854 7.70487C11.2555 7.68503 11.2208 7.67248 11.1845 7.66833C11.1482 7.66418 11.1113 7.66855 11.0772 7.68107C11.0431 7.69359 11.0128 7.71387 10.989 7.74009L10.8041 7.94235C10.0237 8.80342 9.39348 9.49916 8.10192 9.80968C8.04681 9.82227 8.01303 9.81304 7.98903 9.79877C7.95071 9.7734 7.92229 9.73683 7.90814 9.69471C7.88486 9.63658 7.87867 9.57359 7.89026 9.51241C7.90184 9.45124 7.93075 9.39416 7.97392 9.34726C8.66459 8.63977 9.15526 7.67967 9.33037 6.31421C9.65926 3.75618 8.42814 1.03197 6.05481 0.0492114Z" fill="#9AC500"/>
<path d="M6.47458 7.88156C6.52331 7.8806 6.57205 7.89388 6.61408 7.91957C6.65611 7.94525 6.68936 7.98209 6.70927 8.02499C6.72887 8.06631 6.73738 8.11098 6.73401 8.15491C6.73065 8.19884 6.71553 8.24064 6.69003 8.27647C6.60501 8.39783 6.53325 8.53136 6.47759 8.67465C6.35017 9.00271 6.35097 9.26758 6.43221 9.51844C6.5146 9.77324 6.68144 10.0195 6.90064 10.3092C6.90402 10.3137 6.90702 10.3185 6.9096 10.3235L6.93195 10.3694C7.21268 10.7266 7.38161 11.1466 7.4183 11.5785C7.455 12.0104 7.35788 12.4357 7.1387 12.8029C6.91953 13.1702 6.58769 13.4637 6.18334 13.6478C5.77899 13.832 5.31947 13.8989 4.86037 13.8406C4.40128 13.7822 3.96229 13.6011 3.59654 13.319C3.23079 13.037 2.95394 12.6662 2.7995 12.2514C2.64506 11.8367 2.61966 11.3958 2.72635 10.9821C2.83305 10.5685 3.06727 10.1997 3.40068 9.92058C3.4112 9.91177 3.42403 9.90567 3.43803 9.90281C3.45203 9.89995 3.46677 9.90043 3.48094 9.9042C3.4951 9.90797 3.50827 9.91491 3.51925 9.92441C3.53024 9.93391 3.53871 9.94568 3.54391 9.95866L3.58452 10.059C3.75491 10.4852 3.89245 10.8295 4.33169 11.1299C4.35053 11.1425 4.36446 11.1441 4.37545 11.1424C4.39337 11.1387 4.40916 11.1296 4.42039 11.1163C4.4373 11.0986 4.4485 11.0766 4.4528 11.0527C4.4571 11.0288 4.45434 11.0038 4.44481 10.9805C4.28633 10.6232 4.23829 10.2031 4.36547 9.68163C4.60341 8.70458 5.44826 7.89379 6.47458 7.88156Z" fill="#ECFFAA"/>
</svg>
