<svg width="12" height="16" viewBox="0 0 12 16" fill="none" xmlns="http://www.w3.org/2000/svg">
<path d="M6.05481 0.0492114C5.94246 0.00165099 5.81726 -0.0118622 5.69644 0.0105318C5.57562 0.0329258 5.46512 0.090126 5.38015 0.174259C5.29733 0.254872 5.23726 0.353809 5.20543 0.462014C5.17359 0.57022 5.17101 0.684236 5.19792 0.793625C5.28592 1.1629 5.33215 1.54895 5.33215 1.9434C5.33215 2.84643 5.09126 3.47922 4.67615 4.00375C4.25481 4.53668 3.64504 4.97057 2.87437 5.45985C2.86238 5.46764 2.85108 5.47634 2.84059 5.48587L2.74726 5.57483C1.77272 6.16845 1.00128 7.01602 0.526291 8.01496C0.0513061 9.01391 -0.106864 10.1214 0.0709202 11.2035C0.248705 12.2855 0.754824 13.2957 1.52803 14.1119C2.30124 14.928 3.3084 15.5151 4.42762 15.802C5.54685 16.089 6.73017 16.0635 7.8344 15.7287C8.93862 15.394 9.91642 14.7642 10.6495 13.9157C11.3825 13.0672 11.8394 12.0362 11.9648 10.9477C12.0902 9.85911 11.8788 8.75955 11.3561 7.78206C11.3397 7.75122 11.3154 7.72471 11.2854 7.70487C11.2555 7.68503 11.2208 7.67248 11.1845 7.66833C11.1482 7.66418 11.1113 7.66855 11.0772 7.68107C11.0431 7.69359 11.0128 7.71387 10.989 7.74009L10.8041 7.94235C10.0237 8.80342 9.39348 9.49916 8.10192 9.80968C8.04681 9.82227 8.01303 9.81304 7.98903 9.79877C7.95071 9.7734 7.92229 9.73683 7.90814 9.69471C7.88486 9.63658 7.87867 9.57359 7.89026 9.51241C7.90184 9.45124 7.93075 9.39416 7.97392 9.34726C8.66459 8.63977 9.15526 7.67967 9.33037 6.31421C9.65926 3.75618 8.42814 1.03197 6.05481 0.0492114Z" fill="white"/>
</svg>
