<svg width="61" height="51" viewBox="0 0 61 51" fill="none" xmlns="http://www.w3.org/2000/svg">
<path d="M39.4065 18.9575L58.658 13.9986C57.5898 18.1945 54.2841 21.4636 50.0963 22.4655L40.7542 24.7006L39.4065 18.9575Z" fill="url(#paint0_linear_1043_679)"/>
<path d="M37.9104 25.4228L57.1619 20.4639C56.0937 24.6598 52.788 27.9289 48.6002 28.9308L39.2581 31.1659L37.9104 25.4228Z" fill="url(#paint1_linear_1043_679)"/>
<path d="M36.1155 32.1128L55.367 27.1539C54.2988 31.3498 50.9931 34.6188 46.8053 35.6208L37.4632 37.8559L36.1155 32.1128Z" fill="url(#paint2_linear_1043_679)"/>
<path d="M34.1155 38.958L53.367 33.9991C52.2988 38.195 48.9931 41.4641 44.8053 42.466L35.4632 44.7011L34.1155 38.958Z" fill="url(#paint3_linear_1043_679)"/>
<path d="M26.6726 38.959L7.42111 34C8.48933 38.196 11.795 41.465 15.9828 42.467L25.3249 44.702L26.6726 38.959Z" fill="url(#paint4_linear_1043_679)"/>
<path d="M20.6726 18.959L1.42111 14C2.48933 18.196 5.795 21.465 9.98281 22.467L19.3249 24.702L20.6726 18.959Z" fill="url(#paint5_linear_1043_679)"/>
<path d="M22.1687 25.4243L2.9172 20.4654C3.98542 24.6613 7.29109 27.9304 11.4789 28.9323L20.821 31.1674L22.1687 25.4243Z" fill="url(#paint6_linear_1043_679)"/>
<path d="M23.9636 32.1142L4.71212 27.1553C5.78034 31.3512 9.08601 34.6203 13.2738 35.6222L22.6159 37.8573L23.9636 32.1142Z" fill="url(#paint7_linear_1043_679)"/>
<path d="M17.5014 46.1424C17.6322 46.7048 18.2107 47.0398 18.7635 46.8734L23.4097 45.4753C24.2482 45.223 24.3804 44.0912 23.6227 43.6524L17.8773 40.3247C17.1196 39.8859 16.2037 40.5638 16.4021 41.4166L17.5014 46.1424Z" fill="#4E6109"/>
<path d="M52.3408 28.2293C52.7619 27.8343 52.7619 27.1657 52.3408 26.7707L48.8024 23.4509C48.1638 22.8518 47.1182 23.3046 47.1182 24.1802V30.8198C47.1182 31.6954 48.1638 32.1482 48.8024 31.549L52.3408 28.2293Z" fill="#8AA724"/>
<path d="M7.89549 28.2293C7.47444 27.8343 7.47444 27.1657 7.89549 26.7707L11.434 23.4509C12.0725 22.8518 13.1182 23.3046 13.1182 24.1802L13.1182 30.8198C13.1182 31.6954 12.0725 32.1482 11.434 31.549L7.89549 28.2293Z" fill="#8AA724"/>
<path d="M18.5014 8.29606C18.6322 7.73372 19.2107 7.39867 19.7635 7.56504L24.4097 8.96317C25.2482 9.21549 25.3804 10.3472 24.6227 10.7861L18.8773 14.1138C18.1196 14.5526 17.2037 13.8747 17.4021 13.0219L18.5014 8.29606Z" fill="#C2E83C"/>
<path d="M41.9937 8.29606C41.8629 7.73372 41.2845 7.39867 40.7316 7.56504L36.0854 8.96317C35.247 9.21549 35.1147 10.3472 35.8724 10.7861L41.6178 14.1138C42.3755 14.5526 43.2914 13.8747 43.093 13.0219L41.9937 8.29606Z" fill="#C2E83C"/>
<path d="M41.9937 46.1424C41.8629 46.7048 41.2845 47.0398 40.7316 46.8734L36.0854 45.4753C35.247 45.223 35.1147 44.0912 35.8724 43.6524L41.6178 40.3247C42.3755 39.8859 43.2914 40.5638 43.093 41.4166L41.9937 46.1424Z" fill="#4C5E08"/>
<path d="M29.3889 2.77733C29.7839 2.35628 30.4524 2.35628 30.8474 2.77733L34.1672 6.31579C34.7663 6.95436 34.3135 8 33.4379 8H26.7984C25.9228 8 25.47 6.95436 26.0691 6.31579L29.3889 2.77733Z" fill="#CCF441"/>
<path d="M51.2202 14.4905C51.7755 14.6488 52.0817 15.243 51.8884 15.7871L50.2639 20.359C49.9707 21.1841 48.8339 21.2606 48.4327 20.4823L45.3911 14.5804C44.99 13.8021 45.712 12.9206 46.5541 13.1606L51.2202 14.4905Z" fill="#AED133"/>
<path d="M9.22788 14.4113C8.66788 14.5518 8.34283 15.136 8.51869 15.6859L9.99656 20.3073C10.2633 21.1413 11.3971 21.2541 11.8229 20.4889L15.0512 14.6871C15.4769 13.9219 14.7834 13.0179 13.9341 13.2309L9.22788 14.4113Z" fill="#AED133"/>
<path d="M9.24711 39.8409C8.68593 39.7052 8.3559 39.1239 8.52706 38.5725L9.96542 33.9386C10.225 33.1024 11.3579 32.9799 11.7901 33.7414L15.0678 39.5155C15.5001 40.2769 14.8143 41.1869 13.9632 40.9811L9.24711 39.8409Z" fill="#617712"/>
<path d="M51.1401 39.8323C51.7008 39.6947 52.0288 39.1121 51.8557 38.5614L50.401 33.9326C50.1385 33.0972 49.0052 32.9788 48.5757 33.7418L45.3183 39.5274C44.8887 40.2904 45.5777 41.1979 46.4281 40.9891L51.1401 39.8323Z" fill="#617712"/>
<path d="M10.1182 16.727C10.1182 16.0132 10.4986 15.3534 11.1164 14.9959L29.1208 4.57713C29.7382 4.2199 30.499 4.21845 31.1177 4.57333L49.1133 14.8957C49.7348 15.2522 50.1182 15.914 50.1182 16.6305V37.4659C50.1182 38.1797 49.7377 38.8394 49.1199 39.197L31.1199 49.6132C30.5002 49.9718 29.7361 49.9718 29.1164 49.6132L11.1164 39.197C10.4986 38.8394 10.1182 38.1797 10.1182 37.4659V16.727Z" fill="url(#paint8_linear_1043_679)"/>
<path d="M13.3662 18.5235C13.3662 17.8104 13.7459 17.1513 14.3627 16.7935L29.1184 8.23433C29.7366 7.87572 30.4992 7.87426 31.1188 8.23051L45.8657 16.7095C46.4862 17.0663 46.8688 17.7276 46.8688 18.4434V35.5678C46.8688 36.2809 46.4891 36.94 45.8723 37.2978L31.121 45.8544C30.5004 46.2144 29.7346 46.2144 29.114 45.8544L14.3627 37.2978C13.7459 36.94 13.3662 36.2809 13.3662 35.5678V18.5235Z" fill="#667E10"/>
<path d="M14.9912 19.4376C14.9912 18.7233 15.3721 18.0633 15.9905 17.706L29.2233 10.0583C29.8401 9.70177 30.6 9.70032 31.2182 10.0545L44.4422 17.63C45.0643 17.9864 45.4481 18.6485 45.4481 19.3654V34.6542C45.4481 35.3684 45.0672 36.0284 44.4488 36.3858L31.2204 44.031C30.6012 44.3888 29.8381 44.3888 29.2189 44.031L15.9905 36.3858C15.3721 36.0284 14.9912 35.3684 14.9912 34.6542V19.4376Z" fill="url(#paint9_linear_1043_679)"/>
<g filter="url(#filter0_d_1043_679)">
<path d="M25.5679 21.4016C25.5282 21.0314 25.8925 20.7493 26.241 20.8803L31.2397 22.7602C31.6059 22.898 31.6791 23.384 31.3698 23.6236L26.94 27.0537C26.6306 27.2933 26.1784 27.1007 26.1367 26.7117L25.5679 21.4016Z" fill="#4C5E09"/>
</g>
<g filter="url(#filter1_d_1043_679)">
<path d="M29.4824 34.4363C29.6667 34.7597 30.1272 34.7755 30.3333 34.4654L33.2887 30.0173C33.5053 29.6914 33.2805 29.2543 32.8894 29.2409L27.2901 29.0489C26.8991 29.0355 26.6448 29.4562 26.8386 29.7962L29.4824 34.4363Z" fill="url(#paint10_linear_1043_679)"/>
</g>
<g filter="url(#filter2_d_1043_679)">
<path d="M31.2788 31.2476C31.2859 31.6198 31.6828 31.854 32.0121 31.6803L36.7354 29.1882C37.0815 29.0056 37.0932 28.5142 36.7562 28.3154L31.9311 25.468C31.5941 25.2691 31.1696 25.5169 31.1771 25.9081L31.2788 31.2476Z" fill="#7A9D01"/>
</g>
<g filter="url(#filter3_d_1043_679)">
<path d="M28.5757 31.2476C28.5686 31.6198 28.1717 31.854 27.8424 31.6803L23.1191 29.1882C22.773 29.0056 22.7613 28.5142 23.0983 28.3154L27.9234 25.468C28.2604 25.2691 28.6849 25.5169 28.6774 25.9081L28.5757 31.2476Z" fill="#4C5E09"/>
</g>
<g filter="url(#filter4_d_1043_679)">
<path d="M28.5923 23.7351C28.3228 23.4783 28.4185 23.0275 28.7691 22.9023L33.7987 21.1066C34.1672 20.975 34.5372 21.2986 34.4559 21.6814L33.2921 27.1618C33.2108 27.5445 32.7412 27.6898 32.458 27.4198L28.5923 23.7351Z" fill="#7A9D01"/>
</g>
<g filter="url(#filter5_d_1043_679)">
<path d="M29.6426 17.4635C29.7923 17.0029 30.444 17.0029 30.5937 17.4635L32.4756 23.2553C32.5425 23.4613 32.7345 23.6008 32.9511 23.6008H39.0409C39.5253 23.6008 39.7267 24.2206 39.3348 24.5053L34.408 28.0848C34.2328 28.2122 34.1595 28.4379 34.2264 28.6439L36.1083 34.4357C36.2579 34.8963 35.7307 35.2794 35.3389 34.9947L30.4121 31.4152C30.2368 31.2878 29.9995 31.2878 29.8243 31.4152L24.8975 34.9947C24.5056 35.2794 23.9784 34.8963 24.1281 34.4357L26.0099 28.6439C26.0769 28.4379 26.0035 28.2122 25.8283 28.0848L20.9015 24.5053C20.5096 24.2206 20.711 23.6008 21.1954 23.6008H27.2852C27.5019 23.6008 27.6938 23.4613 27.7608 23.2553L29.6426 17.4635Z" fill="url(#paint11_linear_1043_679)"/>
</g>
<circle cx="30.002" cy="2" r="2" fill="#CCF441"/>
<circle cx="41.502" cy="7.5" r="1.5" fill="#C2E83C"/>
<circle cx="19.002" cy="7.5" r="1.5" fill="#C2E83C"/>
<defs>
<filter id="filter0_d_1043_679" x="21.5645" y="16.8477" width="13.999" height="14.3115" filterUnits="userSpaceOnUse" color-interpolation-filters="sRGB">
<feFlood flood-opacity="0" result="BackgroundImageFix"/>
<feColorMatrix in="SourceAlpha" type="matrix" values="0 0 0 0 0 0 0 0 0 0 0 0 0 0 0 0 0 0 127 0" result="hardAlpha"/>
<feOffset/>
<feGaussianBlur stdDeviation="2"/>
<feComposite in2="hardAlpha" operator="out"/>
<feColorMatrix type="matrix" values="0 0 0 0 0 0 0 0 0 0 0 0 0 0 0 0 0 0 0.25 0"/>
<feBlend mode="normal" in2="BackgroundImageFix" result="effect1_dropShadow_1043_679"/>
<feBlend mode="normal" in="SourceGraphic" in2="effect1_dropShadow_1043_679" result="shape"/>
</filter>
<filter id="filter1_d_1043_679" x="22.7725" y="25.0488" width="14.6006" height="13.6401" filterUnits="userSpaceOnUse" color-interpolation-filters="sRGB">
<feFlood flood-opacity="0" result="BackgroundImageFix"/>
<feColorMatrix in="SourceAlpha" type="matrix" values="0 0 0 0 0 0 0 0 0 0 0 0 0 0 0 0 0 0 127 0" result="hardAlpha"/>
<feOffset/>
<feGaussianBlur stdDeviation="2"/>
<feComposite in2="hardAlpha" operator="out"/>
<feColorMatrix type="matrix" values="0 0 0 0 0 0 0 0 0 0 0 0 0 0 0 0 0 0 0.25 0"/>
<feBlend mode="normal" in2="BackgroundImageFix" result="effect1_dropShadow_1043_679"/>
<feBlend mode="normal" in="SourceGraphic" in2="effect1_dropShadow_1043_679" result="shape"/>
</filter>
<filter id="filter2_d_1043_679" x="27.1768" y="21.3979" width="13.8252" height="14.3408" filterUnits="userSpaceOnUse" color-interpolation-filters="sRGB">
<feFlood flood-opacity="0" result="BackgroundImageFix"/>
<feColorMatrix in="SourceAlpha" type="matrix" values="0 0 0 0 0 0 0 0 0 0 0 0 0 0 0 0 0 0 127 0" result="hardAlpha"/>
<feOffset/>
<feGaussianBlur stdDeviation="2"/>
<feComposite in2="hardAlpha" operator="out"/>
<feColorMatrix type="matrix" values="0 0 0 0 0 0 0 0 0 0 0 0 0 0 0 0 0 0 0.25 0"/>
<feBlend mode="normal" in2="BackgroundImageFix" result="effect1_dropShadow_1043_679"/>
<feBlend mode="normal" in="SourceGraphic" in2="effect1_dropShadow_1043_679" result="shape"/>
</filter>
<filter id="filter3_d_1043_679" x="18.8525" y="21.3979" width="13.8252" height="14.3408" filterUnits="userSpaceOnUse" color-interpolation-filters="sRGB">
<feFlood flood-opacity="0" result="BackgroundImageFix"/>
<feColorMatrix in="SourceAlpha" type="matrix" values="0 0 0 0 0 0 0 0 0 0 0 0 0 0 0 0 0 0 127 0" result="hardAlpha"/>
<feOffset/>
<feGaussianBlur stdDeviation="2"/>
<feComposite in2="hardAlpha" operator="out"/>
<feColorMatrix type="matrix" values="0 0 0 0 0 0 0 0 0 0 0 0 0 0 0 0 0 0 0.25 0"/>
<feBlend mode="normal" in2="BackgroundImageFix" result="effect1_dropShadow_1043_679"/>
<feBlend mode="normal" in="SourceGraphic" in2="effect1_dropShadow_1043_679" result="shape"/>
</filter>
<filter id="filter4_d_1043_679" x="24.4375" y="17.0767" width="14.0293" height="14.4814" filterUnits="userSpaceOnUse" color-interpolation-filters="sRGB">
<feFlood flood-opacity="0" result="BackgroundImageFix"/>
<feColorMatrix in="SourceAlpha" type="matrix" values="0 0 0 0 0 0 0 0 0 0 0 0 0 0 0 0 0 0 127 0" result="hardAlpha"/>
<feOffset/>
<feGaussianBlur stdDeviation="2"/>
<feComposite in2="hardAlpha" operator="out"/>
<feColorMatrix type="matrix" values="0 0 0 0 0 0 0 0 0 0 0 0 0 0 0 0 0 0 0.25 0"/>
<feBlend mode="normal" in2="BackgroundImageFix" result="effect1_dropShadow_1043_679"/>
<feBlend mode="normal" in="SourceGraphic" in2="effect1_dropShadow_1043_679" result="shape"/>
</filter>
<filter id="filter5_d_1043_679" x="16.6943" y="13.1182" width="26.8477" height="25.9741" filterUnits="userSpaceOnUse" color-interpolation-filters="sRGB">
<feFlood flood-opacity="0" result="BackgroundImageFix"/>
<feColorMatrix in="SourceAlpha" type="matrix" values="0 0 0 0 0 0 0 0 0 0 0 0 0 0 0 0 0 0 127 0" result="hardAlpha"/>
<feOffset/>
<feGaussianBlur stdDeviation="2"/>
<feComposite in2="hardAlpha" operator="out"/>
<feColorMatrix type="matrix" values="0 0 0 0 0 0 0 0 0 0 0 0 0 0 0 0 0 0 0.25 0"/>
<feBlend mode="normal" in2="BackgroundImageFix" result="effect1_dropShadow_1043_679"/>
<feBlend mode="normal" in="SourceGraphic" in2="effect1_dropShadow_1043_679" result="shape"/>
</filter>
<linearGradient id="paint0_linear_1043_679" x1="47.2417" y1="16.8343" x2="48.6454" y2="22.1088" gradientUnits="userSpaceOnUse">
<stop offset="0.498686" stop-color="#CCF441"/>
<stop offset="0.498786" stop-color="#4E610A"/>
</linearGradient>
<linearGradient id="paint1_linear_1043_679" x1="45.7456" y1="23.2997" x2="47.1493" y2="28.5741" gradientUnits="userSpaceOnUse">
<stop offset="0.498686" stop-color="#CCF441"/>
<stop offset="0.498786" stop-color="#4E610A"/>
</linearGradient>
<linearGradient id="paint2_linear_1043_679" x1="43.9507" y1="29.9896" x2="45.3544" y2="35.264" gradientUnits="userSpaceOnUse">
<stop offset="0.498686" stop-color="#CCF441"/>
<stop offset="0.498786" stop-color="#4E610A"/>
</linearGradient>
<linearGradient id="paint3_linear_1043_679" x1="41.9507" y1="36.8348" x2="43.3544" y2="42.1092" gradientUnits="userSpaceOnUse">
<stop offset="0.498686" stop-color="#CCF441"/>
<stop offset="0.498786" stop-color="#4E610A"/>
</linearGradient>
<linearGradient id="paint4_linear_1043_679" x1="18.8374" y1="36.8358" x2="17.4337" y2="42.1102" gradientUnits="userSpaceOnUse">
<stop offset="0.498686" stop-color="#CCF441"/>
<stop offset="0.498786" stop-color="#4E610A"/>
</linearGradient>
<linearGradient id="paint5_linear_1043_679" x1="12.8374" y1="16.8358" x2="11.4337" y2="22.1102" gradientUnits="userSpaceOnUse">
<stop offset="0.498686" stop-color="#CCF441"/>
<stop offset="0.498786" stop-color="#4E610A"/>
</linearGradient>
<linearGradient id="paint6_linear_1043_679" x1="14.3335" y1="23.3011" x2="12.9298" y2="28.5756" gradientUnits="userSpaceOnUse">
<stop offset="0.498686" stop-color="#CCF441"/>
<stop offset="0.498786" stop-color="#4E610A"/>
</linearGradient>
<linearGradient id="paint7_linear_1043_679" x1="16.1284" y1="29.9911" x2="14.7247" y2="35.2655" gradientUnits="userSpaceOnUse">
<stop offset="0.498686" stop-color="#CCF441"/>
<stop offset="0.498786" stop-color="#4E610A"/>
</linearGradient>
<linearGradient id="paint8_linear_1043_679" x1="30.1182" y1="4" x2="30.1182" y2="50.1929" gradientUnits="userSpaceOnUse">
<stop stop-color="#D6FF45"/>
<stop offset="1" stop-color="#384800"/>
</linearGradient>
<linearGradient id="paint9_linear_1043_679" x1="30.2196" y1="9.48242" x2="30.2196" y2="44.6093" gradientUnits="userSpaceOnUse">
<stop stop-color="#ECFFAA"/>
<stop offset="1" stop-color="#97A611"/>
</linearGradient>
<linearGradient id="paint10_linear_1043_679" x1="25.7511" y1="31.1179" x2="34.2912" y2="31.1847" gradientUnits="userSpaceOnUse">
<stop offset="0.519287" stop-color="#4C5E09"/>
<stop offset="0.519387" stop-color="#7A9D01"/>
</linearGradient>
<linearGradient id="paint11_linear_1043_679" x1="41.1182" y1="27" x2="19.1182" y2="27" gradientUnits="userSpaceOnUse">
<stop offset="0.495192" stop-color="#7A9D01"/>
<stop offset="0.495292" stop-color="#4C5E09"/>
</linearGradient>
</defs>
</svg>
