<svg width="109" height="54" viewBox="0 0 109 54" fill="none" xmlns="http://www.w3.org/2000/svg">
<path d="M15.9062 38.4883C9.44141 38.4883 5.18359 35.4414 4.85156 30.3828L4.83203 30.0898H9.65625L9.69531 30.3242C10.0664 32.7461 12.5469 34.25 16.082 34.25C19.6367 34.25 21.8633 32.668 21.8633 30.2461V30.2266C21.8633 28.1172 20.3984 26.9844 16.7656 26.2227L13.7383 25.5977C8.19141 24.4453 5.45703 21.8672 5.45703 17.668V17.6484C5.47656 12.6875 9.83203 9.32812 15.9062 9.32812C22.0586 9.32812 26.082 12.5703 26.375 17.3945L26.3945 17.7266H21.5703L21.5312 17.4922C21.1992 15.0312 19.0312 13.5664 15.8672 13.5664C12.5664 13.5859 10.5156 15.1289 10.5156 17.375V17.3945C10.5156 19.3867 12.0586 20.5586 15.457 21.2617L18.5039 21.8867C24.3633 23.0977 26.9219 25.4805 26.9219 29.875V29.8945C26.9219 35.1484 22.7812 38.4883 15.9062 38.4883ZM30.6914 38V9.81641H48.9336V14.0547H35.7305V21.6523H48.2109V25.7344H35.7305V33.7617H48.9336V38H30.6914ZM85.3398 38V9.81641H103.582V14.0547H90.3789V21.6523H102.859V25.7344H90.3789V33.7617H103.582V38H85.3398Z" fill="#D6FF45"/>
<path d="M60.2069 17.6042C60.2386 17.6444 60.2954 17.6541 60.3387 17.6269L72.5617 9.92515C72.6465 9.87169 72.6086 9.74054 72.5084 9.74054H54.2063C54.1228 9.74054 54.0761 9.83692 54.1278 9.9025L60.2069 17.6042Z" fill="#D6FF45"/>
<path d="M69.9376 17.3965C69.9219 17.431 69.888 17.4537 69.8501 17.455L61.1871 17.7573C61.0853 17.7609 61.044 17.6276 61.13 17.573L73.1276 9.9496C73.2115 9.89624 73.3134 9.98491 73.2722 10.0755L69.9376 17.3965Z" fill="#D6FF45"/>
<path d="M73.9662 9.76273C73.9272 9.76273 73.8918 9.7854 73.8754 9.82082L70.4248 17.2957C70.3806 17.3915 70.4957 17.4816 70.5781 17.4157L79.92 9.9408C79.9938 9.88174 79.9521 9.76271 79.8576 9.76271L73.9662 9.76273Z" fill="#D6FF45"/>
<path d="M70.5081 18.1089C70.4746 18.0661 70.4814 18.0043 70.5236 17.9698L80.062 10.1691C80.1435 10.1024 80.2595 10.1909 80.2167 10.2871L74.5486 23.0279C74.5179 23.0968 74.425 23.1083 74.3785 23.049L70.5081 18.1089Z" fill="#D6FF45"/>
<path d="M74.0616 23.5322C74.0948 23.5744 74.0887 23.6354 74.0478 23.6702L64.7901 31.5423C64.7102 31.6103 64.5928 31.5249 64.633 31.4279L69.9587 18.5517C69.988 18.481 70.0825 18.468 70.1298 18.5281L74.0616 23.5322Z" fill="#D6FF45"/>
<path d="M64.6075 32.3953C64.5824 32.3534 64.5911 32.2996 64.6282 32.2678L73.6865 24.5099C73.7656 24.4421 73.8827 24.5253 73.8447 24.6223L68.4266 38.4408C68.3963 38.5181 68.2905 38.5269 68.2478 38.4558L64.6075 32.3953Z" fill="#D6FF45"/>
<path d="M64.2458 32.6482C64.2141 32.5948 64.1418 32.5831 64.0947 32.6236L56.691 38.9994C56.6206 39.06 56.6637 39.1755 56.7566 39.1752L67.9324 39.1377C68.0099 39.1375 68.0576 39.0531 68.018 38.9866L64.2458 32.6482Z" fill="#D6FF45"/>
<path d="M63.8374 32.278C63.8316 32.2923 63.8226 32.3051 63.8111 32.3153L56.3425 38.954C56.2557 39.0311 56.1293 38.9233 56.1917 38.8255L65.5448 24.1591L68.1025 20.4003C68.106 20.3951 68.11 20.3903 68.1144 20.3859L68.6302 19.8701C68.7072 19.7931 68.8344 19.8772 68.7937 19.9782L63.8374 32.278Z" fill="#D6FF45"/>
</svg>
