<svg width="183" height="54" viewBox="0 0 183 54" fill="none" xmlns="http://www.w3.org/2000/svg">
<path d="M38.6731 36C36.8598 36 35.5265 35.92 34.6731 35.76C33.8198 35.6 33.3931 35.4133 33.3931 35.2L35.7931 30.04C36.4065 30.1467 37.6731 30.2533 39.5931 30.36C41.5131 30.44 44.0065 30.48 47.0731 30.48H50.2331C51.1665 30.48 51.7931 30.3467 52.1131 30.08C52.4331 29.8133 52.5931 29.4267 52.5931 28.92V28.52C52.5931 27.88 52.4331 27.44 52.1131 27.2C51.7931 26.96 51.1665 26.84 50.2331 26.84H41.0731C38.3798 26.84 36.4198 26.3467 35.1931 25.36C33.9665 24.3467 33.3531 22.7067 33.3531 20.44V19C33.3531 17.8267 33.5665 16.7467 33.9931 15.76C34.4465 14.7733 35.2065 13.9867 36.2731 13.4C37.3398 12.7867 38.8065 12.48 40.6731 12.48H53.9531C55.5798 12.48 56.9265 12.5733 57.9931 12.76C59.0865 12.9467 59.6331 13.1467 59.6331 13.36L58.4331 18.32C57.6865 18.24 56.2731 18.16 54.1931 18.08C52.1398 17.9733 49.5265 17.92 46.3531 17.92L43.4731 17.88C42.6465 17.88 42.0598 18 41.7131 18.24C41.3665 18.4533 41.1798 18.8667 41.1531 19.48V19.76C41.1531 20.3733 41.3398 20.8 41.7131 21.04C42.0865 21.28 42.6865 21.4 43.5131 21.4H52.3131C54.0198 21.4 55.4731 21.5733 56.6731 21.92C57.8731 22.2667 58.7931 22.9067 59.4331 23.84C60.0731 24.7467 60.3931 26.0933 60.3931 27.88V29.32C60.3931 31.32 59.8731 32.9333 58.8331 34.16C57.8198 35.3867 56.0465 36 53.5131 36H38.6731ZM65.9891 36V12.48H91.6691V17.92H73.7891V21.24H87.0291V26.8H73.7891V30.52H91.0291L93.4291 35.56C93.4291 35.6667 93.0691 35.7733 92.3491 35.88C91.6291 35.96 90.3891 36 88.6291 36H65.9891ZM123.802 36V12.48H149.482V17.92H131.602V21.24H144.842V26.8H131.602V30.52H148.842L151.242 35.56C151.242 35.6667 150.882 35.7733 150.162 35.88C149.442 35.96 148.202 36 146.442 36H123.802Z" fill="#D6FF45"/>
<path d="M102.053 18.6941C102.085 18.7342 102.142 18.744 102.185 18.7167L111.919 12.5833C112.004 12.5298 111.966 12.3987 111.866 12.3987H97.2903C97.2068 12.3987 97.1601 12.495 97.2118 12.5606L102.053 18.6941Z" fill="#D6FF45"/>
<path d="M109.871 18.5338C109.855 18.5683 109.822 18.5909 109.784 18.5923L102.918 18.8319C102.816 18.8354 102.775 18.7022 102.861 18.6475L112.369 12.6057C112.453 12.5523 112.555 12.641 112.514 12.7315L109.871 18.5338Z" fill="#D6FF45"/>
<path d="M113.118 12.4168C113.079 12.4168 113.043 12.4395 113.027 12.4749L110.299 18.3848C110.254 18.4806 110.369 18.5707 110.452 18.5048L117.838 12.5949C117.912 12.5359 117.87 12.4168 117.776 12.4168L113.118 12.4168Z" fill="#D6FF45"/>
<path d="M110.343 19.1263C110.309 19.0835 110.316 19.0217 110.358 18.9872L117.932 12.7932C118.013 12.7265 118.129 12.815 118.087 12.9113L113.586 23.0278C113.555 23.0967 113.462 23.1082 113.416 23.0488L110.343 19.1263Z" fill="#D6FF45"/>
<path d="M113.169 23.4508C113.203 23.4931 113.196 23.554 113.155 23.5888L105.804 29.8396C105.724 29.9076 105.607 29.8222 105.647 29.7252L109.876 19.501C109.905 19.4303 110 19.4173 110.047 19.4774L113.169 23.4508Z" fill="#D6FF45"/>
<path d="M105.605 30.5911C105.58 30.5493 105.589 30.4954 105.626 30.4637L112.821 24.3015C112.9 24.2338 113.017 24.317 112.979 24.414L108.676 35.39C108.645 35.4672 108.54 35.4761 108.497 35.4049L105.605 30.5911Z" fill="#D6FF45"/>
<path d="M105.314 30.7967C105.282 30.7433 105.21 30.7315 105.163 30.7721L99.2806 35.8373C99.2103 35.8979 99.2533 36.0134 99.3462 36.0131L108.225 35.9833C108.303 35.9831 108.35 35.8987 108.311 35.8322L105.314 30.7967Z" fill="#D6FF45"/>
<path d="M104.982 30.48C104.976 30.4943 104.967 30.5071 104.955 30.5174L99.0724 35.7463C98.9856 35.8235 98.8592 35.7157 98.9216 35.6178L106.35 23.9702L108.401 20.9559C108.404 20.9507 108.408 20.9459 108.413 20.9414L108.757 20.5975C108.834 20.5205 108.961 20.6045 108.92 20.7055L104.982 30.48Z" fill="#D6FF45"/>
</svg>
