<svg width="183" height="54" viewBox="0 0 183 54" fill="none" xmlns="http://www.w3.org/2000/svg">
<path d="M46.5972 31C45.0558 31 43.9225 30.932 43.1972 30.796C42.4718 30.66 42.1092 30.5013 42.1092 30.32L44.1492 25.934C44.6705 26.0247 45.7472 26.1153 47.3792 26.206C49.0112 26.274 51.1305 26.308 53.7372 26.308H56.4232C57.2165 26.308 57.7492 26.1947 58.0212 25.968C58.2932 25.7413 58.4292 25.4127 58.4292 24.982V24.642C58.4292 24.098 58.2932 23.724 58.0212 23.52C57.7492 23.316 57.2165 23.214 56.4232 23.214H48.6372C46.3478 23.214 44.6818 22.7947 43.6392 21.956C42.5965 21.0947 42.0752 19.7007 42.0752 17.774V16.55C42.0752 15.5527 42.2565 14.6347 42.6192 13.796C43.0045 12.9573 43.6505 12.2887 44.5572 11.79C45.4638 11.2687 46.7105 11.008 48.2972 11.008H59.5852C60.9678 11.008 62.1125 11.0873 63.0192 11.246C63.9485 11.4047 64.4132 11.5747 64.4132 11.756L63.3932 15.972C62.7585 15.904 61.5572 15.836 59.7892 15.768C58.0438 15.6773 55.8225 15.632 53.1252 15.632L50.6772 15.598C49.9745 15.598 49.4758 15.7 49.1812 15.904C48.8865 16.0853 48.7278 16.4367 48.7052 16.958V17.196C48.7052 17.7173 48.8638 18.08 49.1812 18.284C49.4985 18.488 50.0085 18.59 50.7112 18.59H58.1912C59.6418 18.59 60.8772 18.7373 61.8972 19.032C62.9172 19.3267 63.6992 19.8707 64.2432 20.664C64.7872 21.4347 65.0592 22.5793 65.0592 24.098V25.322C65.0592 27.022 64.6172 28.3933 63.7332 29.436C62.8718 30.4787 61.3645 31 59.2112 31H46.5972ZM69.8157 31V11.008H91.6437V15.632H76.4457V18.454H87.6997V23.18H76.4457V26.342H91.0997L93.1397 30.626C93.1397 30.7167 92.8337 30.8073 92.2217 30.898C91.6097 30.966 90.5557 31 89.0597 31H69.8157ZM118.956 31V11.008H140.784V15.632H125.586V18.454H136.84V23.18H125.586V26.342H140.24L142.28 30.626C142.28 30.7167 141.974 30.8073 141.362 30.898C140.75 30.966 139.696 31 138.2 31H118.956Z" fill="white"/>
<path d="M101.142 16.3109C101.184 16.3627 101.259 16.3754 101.316 16.3401L109.587 11.2386C109.699 11.1695 109.649 11 109.517 11H97.1323C97.022 11 96.9603 11.1246 97.0286 11.2093L101.142 16.3109Z" fill="white"/>
<path d="M107.961 16.1777C107.94 16.2223 107.896 16.2516 107.846 16.2533L102.088 16.45C101.954 16.4546 101.899 16.2823 102.013 16.2117L109.986 11.2523C110.097 11.1834 110.232 11.298 110.177 11.415L107.961 16.1777Z" fill="white"/>
<path d="M110.787 11.0151C110.736 11.0151 110.689 11.0444 110.667 11.0902L108.395 15.9086C108.336 16.0325 108.488 16.1489 108.597 16.0637L114.749 11.2453C114.847 11.1689 114.791 11.0151 114.667 11.0151L110.787 11.0151Z" fill="white"/>
<path d="M108.38 16.7444C108.335 16.689 108.344 16.6092 108.4 16.5646L114.784 11.4542C114.891 11.368 115.044 11.4824 114.988 11.6068L111.195 19.9535C111.154 20.0425 111.031 20.0574 110.97 19.9807L108.38 16.7444Z" fill="white"/>
<path d="M110.776 20.3439C110.82 20.3985 110.812 20.4772 110.758 20.5222L104.562 25.6799C104.456 25.7678 104.301 25.6574 104.354 25.532L107.919 17.0958C107.958 17.0045 108.082 16.9876 108.145 17.0654L110.776 20.3439Z" fill="white"/>
<path d="M104.274 26.4711C104.236 26.4167 104.246 26.3433 104.297 26.3005L110.345 21.2303C110.45 21.1418 110.606 21.2524 110.553 21.378L106.921 29.9443C106.881 30.0394 106.749 30.0524 106.69 29.9672L104.274 26.4711Z" fill="white"/>
<path d="M104.027 26.6473C103.983 26.5833 103.891 26.5715 103.832 26.6219L98.9077 30.7727C98.8098 30.8553 98.8788 31.0122 99.0074 30.9992L106.297 30.2639C106.397 30.2539 106.449 30.1437 106.393 30.0628L104.027 26.6473Z" fill="white"/>
<path d="M103.708 26.3316C103.7 26.3505 103.688 26.3673 103.672 26.3807L98.7598 30.5788C98.6446 30.6773 98.4791 30.5372 98.5621 30.4114L104.89 20.8177L106.665 18.2633C106.67 18.2566 106.675 18.2503 106.681 18.2446L106.819 18.1095C106.921 18.01 107.089 18.1187 107.035 18.2492L103.708 26.3316Z" fill="white"/>
</svg>
