<svg width="606" height="759" viewBox="0 0 606 759" fill="none" xmlns="http://www.w3.org/2000/svg">
<path d="M139.386 238.96C140.019 239.763 141.156 239.958 142.022 239.413L417.14 66.0642C418.837 64.9951 418.08 62.3721 416.074 62.3721H4.12662C2.45569 62.3721 1.52148 64.2996 2.55674 65.6112L139.386 238.96Z" fill="#D6FF45"/>
<path d="M357.495 234.255C357.181 234.945 356.503 235.398 355.745 235.425L160.348 242.244C158.311 242.315 157.486 239.65 159.206 238.557L429.816 66.6119C431.495 65.5447 433.533 67.3181 432.708 69.129L357.495 234.255Z" fill="#D6FF45"/>
<path d="M447.778 62.8726C446.998 62.8726 446.289 63.3261 445.962 64.0343L368.051 232.806C367.166 234.722 369.468 236.524 371.116 235.206L582.049 66.4339C583.525 65.2528 582.69 62.8722 580.799 62.8722L447.778 62.8726Z" fill="#D6FF45"/>
<path d="M370.208 249.914C369.537 249.057 369.674 247.821 370.516 247.132L585.486 71.3271C587.117 69.9931 589.436 71.763 588.58 73.6882L460.837 360.826C460.224 362.204 458.365 362.434 457.435 361.247L370.208 249.914Z" fill="#D6FF45"/>
<path d="M450.226 371.964C450.89 372.809 450.767 374.027 449.949 374.723L241.309 552.135C239.71 553.495 237.363 551.787 238.165 549.847L358.193 259.661C358.777 258.247 360.668 257.987 361.613 259.19L450.226 371.964Z" fill="#D6FF45"/>
<path d="M237.871 570.449C237.368 569.612 237.543 568.535 238.284 567.9L442.403 393.086C443.985 391.731 446.327 393.396 445.566 395.335L323.476 706.713C322.87 708.259 320.754 708.436 319.899 707.013L237.871 570.449Z" fill="#D6FF45"/>
<path d="M229.718 576.047C229.082 574.979 227.636 574.743 226.694 575.555L59.8764 719.21C58.4686 720.422 59.3303 722.732 61.1881 722.726L313.001 721.882C314.549 721.877 315.505 720.19 314.713 718.859L229.718 576.047Z" fill="#D6FF45"/>
<path d="M220.675 568.065C220.56 568.351 220.38 568.607 220.149 568.812L51.2418 718.946C49.5068 720.488 46.9787 718.333 48.2269 716.376L259.002 385.869L316.396 301.525C316.467 301.421 316.547 301.325 316.635 301.236L329.067 288.804C330.607 287.264 333.15 288.946 332.336 290.966L220.675 568.065Z" fill="#D6FF45"/>
</svg>
