<svg width="12" height="16" viewBox="0 0 12 16" fill="none" xmlns="http://www.w3.org/2000/svg">
<path d="M5.67639 0.0488645C5.57106 0.00163935 5.45368 -0.0117785 5.34041 0.0104576C5.22714 0.0326937 5.12355 0.0894907 5.04389 0.173031C4.96625 0.253075 4.90993 0.351315 4.88009 0.458757C4.85024 0.5662 4.84783 0.679412 4.87306 0.788031C4.95556 1.1547 4.99889 1.53803 4.99889 1.9297C4.99889 2.82636 4.77306 3.4547 4.38389 3.97553C3.98889 4.5047 3.41722 4.93553 2.69472 5.42136C2.68348 5.4291 2.67289 5.43774 2.66306 5.4472L2.57556 5.53553C1.66192 6.12497 0.938697 6.96656 0.493398 7.95846C0.0480995 8.95037 -0.100185 10.0501 0.0664878 11.1245C0.233161 12.1989 0.707648 13.202 1.43253 14.0124C2.15741 14.8228 3.10162 15.4057 4.1509 15.6906C5.20017 15.9756 6.30954 15.9503 7.34475 15.6179C8.37996 15.2855 9.29665 14.6601 9.98388 13.8176C10.6711 12.9751 11.0994 11.9514 11.217 10.8705C11.3346 9.78961 11.1364 8.6978 10.6464 7.7272C10.6309 7.69658 10.6082 7.67026 10.5801 7.65056C10.552 7.63086 10.5195 7.61839 10.4855 7.61427C10.4514 7.61015 10.4169 7.6145 10.3849 7.62693C10.3529 7.63936 10.3245 7.65949 10.3022 7.68553L10.1289 7.88636C9.39722 8.74137 8.80639 9.4322 7.59556 9.74053C7.54389 9.75303 7.51222 9.74387 7.48972 9.7297C7.45379 9.70451 7.42715 9.6682 7.41389 9.62636C7.39206 9.56865 7.38626 9.5061 7.39712 9.44536C7.40798 9.38461 7.43508 9.32794 7.47556 9.28136C8.12306 8.57886 8.58306 7.62553 8.74722 6.2697C9.05556 3.7297 7.90139 1.0247 5.67639 0.0488645Z" fill="#E5FF89"/>
</svg>
